<mxfile host="app.diagrams.net" modified="2023-10-21T07:48:21.204Z" agent="Mozilla/5.0 (Windows NT 10.0; Win64; x64) AppleWebKit/537.36 (KHTML, like Gecko) Chrome/118.0.0.0 Safari/537.36" etag="t2Q0Dfs9qIN1WwQlfj04" version="22.0.6" type="device">
  <diagram name="Page-1" id="TUuK_z1TODneTFZ7jnLf">
    <mxGraphModel dx="714" dy="359" grid="1" gridSize="10" guides="1" tooltips="1" connect="1" arrows="1" fold="1" page="1" pageScale="1" pageWidth="850" pageHeight="1100" math="0" shadow="0">
      <root>
        <mxCell id="0" />
        <mxCell id="1" parent="0" />
        <mxCell id="OzavWiV9OdfGLWeC7wIS-1" value="" style="swimlane;html=1;childLayout=stackLayout;startSize=0;rounded=0;shadow=0;comic=0;labelBackgroundColor=none;strokeWidth=1;fontFamily=Verdana;fontSize=12;align=center;" parent="1" vertex="1">
          <mxGeometry x="40" y="21" width="500" height="440" as="geometry">
            <mxRectangle x="40" y="20" width="70" height="30" as="alternateBounds" />
          </mxGeometry>
        </mxCell>
        <mxCell id="OzavWiV9OdfGLWeC7wIS-2" value="&lt;font style=&quot;font-size: 14px;&quot;&gt;Admin&lt;/font&gt;" style="swimlane;html=1;startSize=20;" parent="OzavWiV9OdfGLWeC7wIS-1" vertex="1">
          <mxGeometry width="250" height="440" as="geometry">
            <mxRectangle y="20" width="40" height="970" as="alternateBounds" />
          </mxGeometry>
        </mxCell>
        <mxCell id="OzavWiV9OdfGLWeC7wIS-3" value="" style="ellipse;whiteSpace=wrap;html=1;rounded=0;shadow=0;comic=0;labelBackgroundColor=none;strokeWidth=1;fillColor=#000000;fontFamily=Verdana;fontSize=12;align=center;" parent="OzavWiV9OdfGLWeC7wIS-2" vertex="1">
          <mxGeometry x="105" y="40" width="40" height="40" as="geometry" />
        </mxCell>
        <mxCell id="OzavWiV9OdfGLWeC7wIS-5" value="&lt;font style=&quot;font-size: 14px;&quot;&gt;Manage profile&lt;/font&gt;" style="rounded=1;whiteSpace=wrap;html=1;" parent="OzavWiV9OdfGLWeC7wIS-2" vertex="1">
          <mxGeometry x="80" y="117" width="90" height="40" as="geometry" />
        </mxCell>
        <mxCell id="OzavWiV9OdfGLWeC7wIS-6" value="" style="endArrow=classic;html=1;rounded=0;exitX=0.5;exitY=1;exitDx=0;exitDy=0;entryX=0.5;entryY=0;entryDx=0;entryDy=0;" parent="OzavWiV9OdfGLWeC7wIS-2" source="OzavWiV9OdfGLWeC7wIS-3" target="OzavWiV9OdfGLWeC7wIS-5" edge="1">
          <mxGeometry width="50" height="50" relative="1" as="geometry">
            <mxPoint x="360" y="300" as="sourcePoint" />
            <mxPoint x="410" y="250" as="targetPoint" />
          </mxGeometry>
        </mxCell>
        <mxCell id="OzavWiV9OdfGLWeC7wIS-4" value="" style="ellipse;html=1;shape=endState;fillColor=#000000;strokeColor=#0F0000;" parent="OzavWiV9OdfGLWeC7wIS-2" vertex="1">
          <mxGeometry x="105" y="373" width="40" height="40" as="geometry" />
        </mxCell>
        <mxCell id="8qBxuZVfWUz4ZcnqxZRa-7" value="" style="endArrow=classic;html=1;rounded=0;exitX=0.5;exitY=1;exitDx=0;exitDy=0;entryX=0.5;entryY=0;entryDx=0;entryDy=0;" parent="OzavWiV9OdfGLWeC7wIS-2" source="E52GenuPR0HvQd338yZz-15" target="OzavWiV9OdfGLWeC7wIS-4" edge="1">
          <mxGeometry width="50" height="50" relative="1" as="geometry">
            <mxPoint x="124.99999999999977" y="443" as="sourcePoint" />
            <mxPoint x="650" y="648" as="targetPoint" />
          </mxGeometry>
        </mxCell>
        <mxCell id="E52GenuPR0HvQd338yZz-15" value="&lt;font style=&quot;font-size: 14px;&quot;&gt;User edited&lt;/font&gt;" style="rounded=1;whiteSpace=wrap;html=1;" parent="OzavWiV9OdfGLWeC7wIS-2" vertex="1">
          <mxGeometry x="80" y="295" width="90" height="40" as="geometry" />
        </mxCell>
        <mxCell id="gI9Cqu3KJDy3513o_Tue-1" value="&lt;span style=&quot;font-size: 14px;&quot;&gt;Edit User&lt;/span&gt;" style="rounded=1;whiteSpace=wrap;html=1;" vertex="1" parent="OzavWiV9OdfGLWeC7wIS-2">
          <mxGeometry x="80" y="200" width="90" height="40" as="geometry" />
        </mxCell>
        <mxCell id="gI9Cqu3KJDy3513o_Tue-2" value="" style="endArrow=classic;html=1;rounded=0;exitX=0.5;exitY=1;exitDx=0;exitDy=0;entryX=0.5;entryY=0;entryDx=0;entryDy=0;" edge="1" parent="OzavWiV9OdfGLWeC7wIS-2" target="gI9Cqu3KJDy3513o_Tue-1" source="OzavWiV9OdfGLWeC7wIS-5">
          <mxGeometry width="50" height="50" relative="1" as="geometry">
            <mxPoint x="135" y="90" as="sourcePoint" />
            <mxPoint x="420" y="260" as="targetPoint" />
          </mxGeometry>
        </mxCell>
        <mxCell id="E52GenuPR0HvQd338yZz-16" value="yes" style="endArrow=classic;html=1;rounded=0;exitX=0;exitY=0.5;exitDx=0;exitDy=0;entryX=1;entryY=0.5;entryDx=0;entryDy=0;" parent="OzavWiV9OdfGLWeC7wIS-1" source="OzavWiV9OdfGLWeC7wIS-12" target="E52GenuPR0HvQd338yZz-15" edge="1">
          <mxGeometry x="-0.7834" y="10" width="50" height="50" relative="1" as="geometry">
            <mxPoint x="323" y="418.4999999999999" as="sourcePoint" />
            <mxPoint x="385" y="503" as="targetPoint" />
            <mxPoint x="-1" as="offset" />
          </mxGeometry>
        </mxCell>
        <mxCell id="OzavWiV9OdfGLWeC7wIS-10" value="&lt;font style=&quot;font-size: 14px;&quot;&gt;System&lt;/font&gt;" style="swimlane;html=1;startSize=20;" parent="OzavWiV9OdfGLWeC7wIS-1" vertex="1">
          <mxGeometry x="250" width="250" height="440" as="geometry" />
        </mxCell>
        <mxCell id="OzavWiV9OdfGLWeC7wIS-12" value="&lt;font style=&quot;font-size: 14px;&quot;&gt;if success&lt;/font&gt;" style="rhombus;whiteSpace=wrap;html=1;" parent="OzavWiV9OdfGLWeC7wIS-10" vertex="1">
          <mxGeometry x="73" y="279" width="103" height="71" as="geometry" />
        </mxCell>
        <mxCell id="dHQx1IV8ueyIYqK32sHI-1" value="&lt;span style=&quot;font-size: 14px;&quot;&gt;validation&lt;/span&gt;" style="rounded=1;whiteSpace=wrap;html=1;" parent="OzavWiV9OdfGLWeC7wIS-10" vertex="1">
          <mxGeometry x="80" y="200" width="90" height="40" as="geometry" />
        </mxCell>
        <mxCell id="dHQx1IV8ueyIYqK32sHI-2" value="" style="endArrow=classic;html=1;rounded=0;exitX=0.5;exitY=1;exitDx=0;exitDy=0;entryX=0.5;entryY=0;entryDx=0;entryDy=0;" parent="OzavWiV9OdfGLWeC7wIS-10" source="dHQx1IV8ueyIYqK32sHI-1" target="OzavWiV9OdfGLWeC7wIS-12" edge="1">
          <mxGeometry x="-0.5" y="10" width="50" height="50" relative="1" as="geometry">
            <mxPoint x="-70" y="230" as="sourcePoint" />
            <mxPoint x="90" y="230" as="targetPoint" />
            <mxPoint as="offset" />
          </mxGeometry>
        </mxCell>
        <mxCell id="OzavWiV9OdfGLWeC7wIS-15" value="" style="endArrow=classic;html=1;rounded=0;exitX=1;exitY=0.5;exitDx=0;exitDy=0;entryX=0;entryY=0.5;entryDx=0;entryDy=0;" parent="OzavWiV9OdfGLWeC7wIS-1" source="gI9Cqu3KJDy3513o_Tue-1" target="dHQx1IV8ueyIYqK32sHI-1" edge="1">
          <mxGeometry x="-0.5" y="10" width="50" height="50" relative="1" as="geometry">
            <mxPoint x="135" y="110" as="sourcePoint" />
            <mxPoint x="340" y="159" as="targetPoint" />
            <mxPoint as="offset" />
          </mxGeometry>
        </mxCell>
        <mxCell id="dHQx1IV8ueyIYqK32sHI-7" value="no" style="endArrow=classic;html=1;rounded=0;exitX=1;exitY=0.5;exitDx=0;exitDy=0;" parent="1" source="OzavWiV9OdfGLWeC7wIS-12" edge="1">
          <mxGeometry x="-0.8723" y="10" width="50" height="50" relative="1" as="geometry">
            <mxPoint x="220" y="181" as="sourcePoint" />
            <mxPoint x="170" y="200" as="targetPoint" />
            <mxPoint as="offset" />
            <Array as="points">
              <mxPoint x="490" y="335" />
              <mxPoint x="490" y="200" />
            </Array>
          </mxGeometry>
        </mxCell>
      </root>
    </mxGraphModel>
  </diagram>
</mxfile>
